<?xml version="1.0" encoding="utf-8"?>
<!-- Generator: Adobe Illustrator 24.0.3, SVG Export Plug-In . SVG Version: 6.00 Build 0)  -->
<svg version="1.1" id="Layer_1" xmlns="http://www.w3.org/2000/svg" xmlns:xlink="http://www.w3.org/1999/xlink" x="0px" y="0px"
	 viewBox="0 0 221.4 32" style="enable-background:new 0 0 221.4 32;" xml:space="preserve">
<style type="text/css">
	.st0{fill:#FFFFFF;}
</style>
<g>
	<g>
		<g>
			<g>
				<g>
					<path class="st0" d="M55.4,25.1l-14.1-0.2l0-11.3l0-7.8l0-2.6l0-0.7c0-1.6-1.1-1.4-1.1-1.4h-4.6c-0.8,0.1-1.1,0.5-1.1,1.1
						l0,22.7c0,3.9,3.2,7,7,7h13.9c0.7,0.1,1.1-0.3,1.1-1.1v-4.6C56.7,25.7,56.3,25.3,55.4,25.1L55.4,25.1z"/>
				</g>
			</g>
		</g>
	</g>
	<g>
		<g>
			<g>
				<g>
					<path class="st0" d="M29.8,20.3h-5.1c-0.4,0-0.8,0.2-1,0.5c-1.6,2.6-4.5,4.3-7.8,4.3c-5.1,0-9.1-4.1-9.1-9.1
						c0-5,4.1-9.1,9.1-9.1c3.3,0,6.1,1.7,7.8,4.3c0.3,0.4,0.6,0.5,1,0.5h5.1c1-0.1,1.4-0.6,1.1-1.6C28.6,4.2,22.8,0,16,0
						C7.2,0,0,7.2,0,16c0,8.8,7.2,16,16,16c6.8,0,12.6-4.2,14.9-10.1C31.2,20.8,30.9,20.2,29.8,20.3L29.8,20.3z"/>
				</g>
			</g>
		</g>
	</g>
	<g>
		<g>
			<g>
				<g>
					<path class="st0" d="M147.3,30.1l-14-14.5l12.3-12.7c0.9-1.2,0.6-1.9-0.8-1.9h-5.6c-0.4,0.1-0.6,0.2-0.8,0.3L124.6,15
						c-0.5,0.6-0.5,1.2,0,1.6l15,15c0.2,0.3,0.5,0.4,0.8,0.3h6C148.3,32,148.4,31.4,147.3,30.1L147.3,30.1z"/>
				</g>
			</g>
		</g>
	</g>
	<g>
		<g>
			<g>
				<g>
					<path class="st0" d="M119.8,20.3h-5.1c-0.4-0.1-0.7,0.1-1,0.5c-1.6,2.6-4.5,4.3-7.8,4.3c-5,0-9.1-4.1-9.1-9.1
						c0-5,4.1-9.1,9.1-9.1c3.3,0,6.1,1.7,7.8,4.3c0.2,0.4,0.5,0.6,1,0.5h5.1c1.1,0.1,1.5-0.4,1.1-1.6C118.5,4.2,112.7,0,106,0
						c-8.8,0-16,7.2-16,16c0,8.8,7.2,16,16,16c6.8,0,12.6-4.2,14.9-10.1C121.3,20.7,121,20.2,119.8,20.3L119.8,20.3z"/>
				</g>
			</g>
		</g>
	</g>
	<g>
		<g>
			<g>
				<g>
					<path class="st0" d="M71.4,0c-8.8,0-16,7.2-16,16c0,8.8,7.2,16,16,16c8.8,0,16-7.2,16-16C87.4,7.2,80.3,0,71.4,0L71.4,0z
						 M71.4,25.1c-5.1,0-9.1-4.1-9.1-9.1c0-5,4.1-9.1,9.1-9.1c5,0,9.1,4.1,9.1,9.1C80.6,21,76.5,25.1,71.4,25.1L71.4,25.1z"/>
				</g>
			</g>
		</g>
	</g>
	<g>
		<g>
			<g>
				<g>
					<path class="st0" d="M178.5,6.9c5.1,0,9.2,4.1,9.2,9.2c0,5.1-4.1,9.2-9.2,9.2c-5.1,0-9.2-4.1-9.2-9.2
						C169.3,11,173.4,6.9,178.5,6.9L178.5,6.9z M178.5,9.7c-3.5,0-6.4,2.9-6.4,6.4c0,3.5,2.9,6.4,6.4,6.4c3.5,0,6.4-2.9,6.4-6.4
						C184.9,12.6,182,9.7,178.5,9.7L178.5,9.7z"/>
				</g>
			</g>
		</g>
	</g>
	<g>
		<g>
			<g>
				<g>
					<path class="st0" d="M217.3,25.3h4.1l-9.2-9.5l8.1-8.4h-3.7l-7,7.3V7.8c0-0.1,0-0.2,0-0.3h-2.9l0,0.3v17.5h2.8v-7.8h0.2
						L217.3,25.3L217.3,25.3z"/>
				</g>
			</g>
		</g>
	</g>
	<g>
		<g>
			<g>
				<g>
					<path class="st0" d="M204.3,25.3l-5.9-5.2c2.8-0.7,4.8-3.3,4.8-6.3c0-3.6-2.9-6.5-6.5-6.5c-1.4,0-2.7,0.4-3.7,1.2
						c0-0.7,0-1,0-1.1h-2.9l0,17.9h2.8c0,0,0-2.8,0-6.2l7.3,6.2H204.3L204.3,25.3z M196.7,10.1c2,0,3.7,1.7,3.7,3.7
						c0,2-1.7,3.7-3.7,3.7c-2,0-3.7-1.7-3.7-3.7C193,11.7,194.7,10.1,196.7,10.1L196.7,10.1z"/>
				</g>
			</g>
		</g>
	</g>
	<g>
		<g>
			<g>
				<g>
					<path class="st0" d="M166.3,7.5c0,0.1-2.8,7.9-4.6,13.1c-1.7-4.7-4.2-11.2-4.2-11.3l-1.5,4.8l0,0c0,0-1.1,3.3-2.2,6.3
						c-1.9-5.2-4.7-12.9-4.7-13h-3.4l6.4,17.6c0,0.1,0,0.1,0,0.1h0.1h3.3h0.1l2.1-5.9l2.2,5.9h0.1h3.4h0l6.3-17.8H166.3L166.3,7.5z"
						/>
				</g>
			</g>
		</g>
	</g>
</g>
</svg>
